<svg xmlns="http://www.w3.org/2000/svg" baseProfile="full" width="914.667" height="362.667" viewBox="0 0 914.67 362.67"><path fill="#1040C0" d="M302.379 137.253c-1.509-5.916-4.885-10.822-10.128-14.712-5.241-3.891-11.993-5.839-20.252-5.839-6.593 0-12.412 1.453-17.453 4.356-5.046 2.904-9.314 7.261-12.808 13.068l.833-14.565h-48.967v7.712a247.706 247.706 0 0148.136 44.873c.031-11.135.466-20.699 1.307-23.336.872-2.741 3.017-4.111 6.433-4.111 3.256 0 5.243 1.192 5.958 3.576.714 2.383 1.072 9.015 1.072 19.895v23.949c17.48 26.291 27.376 53.462 33.713 85.542h14.417V166.858c.002-13.817-.753-23.688-2.261-29.605z"/><path fill="#FFFFFF" d="M696.612 112.296V277.66h48.133l.06-68.906 15.012 68.906h46.287l-25.348-94.914c-37.161-12.213-66.429-36.174-84.144-70.45zm212.071 92.332c-4.323-5.971-14.6-12.956-28.328-19.707-16.48 6.313-33.122 10.301-51.826 10.301-2.417 0-5.041-.166-7.432-.281a61.442 61.442 0 002.008 1.735c4.283 3.554 10.107 7.494 17.072 11.406 16.839 9.374 26.17 15.014 27.998 16.916 1.748 1.908 2.622 6.635 2.622 14.179 0 5.48-.677 9.075-2.026 10.781-1.354 1.71-3.736 2.562-7.148 2.562-3.178 0-5.303-1.27-6.375-3.812-1.073-2.543-1.608-8.06-1.608-16.56V222.14h-42.651v7.625c0 13.184 1.628 23.035 4.884 29.547 3.255 6.512 9.234 11.677 17.93 15.488 8.697 3.81 19.161 5.718 31.393 5.718 11.039 0 20.472-1.768 28.299-5.304 7.821-3.532 13.404-8.577 16.74-15.129 3.336-6.553 5.002-16.263 5.002-29.131-.002-11.513-2.188-20.292-6.554-26.326zm-253.175-64.276l1.907-20.79h-48.134v158.1h48.134v-62.429c0-15.328.476-25.12 1.429-29.368.953-4.249 3.495-7.565 7.625-9.948 4.131-2.383 10.604-3.575 19.419-3.575v-55.638c-13.265.874-23.391 8.758-30.38 23.648zm-231.192 69.753l-9.741-90.547h-39.851c-6.68 54.579-10.283 84.764-10.812 90.547-6.695-56.235-10.2-86.416-10.52-90.547h-41.485l20.402 158.102h52.363l5.285-34.311a625.089 625.089 0 005.408-42.059c3.808 31.599 7.135 57.054 9.978 76.37h52.241l19.213-158.102h-41.446c-5.815 33.928-9.495 64.107-11.036 90.547m487.226-40.148l-.182.12h.182m-366.238 5.6h-14.059v-11.556c0-8.895.396-14.356 1.193-16.383.792-2.026 2.86-3.037 6.194-3.037 2.7 0 4.486 1.192 5.361 3.573.875 2.383 1.309 7.667 1.309 15.847v11.556m24.486-51.293c-8.779-5.122-19.918-7.683-33.42-7.683-11.04 0-20.81 2.125-29.307 6.375-8.5 4.248-14.615 10.362-18.348 18.348-3.736 7.981-5.6 18.884-5.6 32.704v46.108c0 11.754.833 20.71 2.501 26.865 1.668 6.156 4.666 11.796 8.995 16.917 4.329 5.124 10.384 9.156 18.169 12.092 7.783 2.938 16.756 4.41 26.926 4.41 10.482 0 19.198-1.49 26.149-4.47 6.951-2.977 12.691-7.445 17.216-13.402 4.528-5.958 7.405-11.556 8.64-16.799 1.229-5.244 1.847-12.748 1.847-22.517v-11.676h-45.632v20.848c0 7.864-.616 13.166-1.848 15.906-1.232 2.74-3.675 4.111-7.326 4.111-2.941 0-4.924-1.031-5.958-3.097-1.034-2.064-1.548-6.672-1.548-13.822V201.41h62.31v-20.969c0-15.328-1.768-27.224-5.302-35.683-3.532-8.458-9.688-15.248-18.464-20.374z"/><path fill="#404040" d="M256.508 189.456v88.206h36.38c-6.335-32.08-18.897-61.917-36.38-88.206zm-62.904-64.851V277.66h48.133V170.792c0-.448.002-.876.003-1.311a247.841 247.841 0 00-48.136-44.876zM0 277.66h50.159V84.772H0M129.624 236.08c0 6.832-.457 11.279-1.369 13.345-.915 2.064-2.8 3.096-5.66 3.096-2.782 0-4.647-1.133-5.6-3.394-.954-2.264-1.43-7.13-1.43-14.595v-71.365c0-8.102.476-13.204 1.43-15.31.953-2.104 2.86-3.157 5.718-3.157 2.859 0 4.724 1.053 5.6 3.157.874 2.106 1.311 7.208 1.311 15.31m37.173-29.071c-4.21-5.161-10.186-9.351-17.929-12.568-7.745-3.216-17.02-4.824-27.82-4.824-12.867 0-23.432 2.5-31.692 7.504-8.261 5.003-13.98 11.637-17.156 19.896-3.177 8.261-4.765 19.739-4.765 34.433v40.507c0 13.424.873 23.491 2.621 30.201 1.747 6.714 4.665 12.432 8.756 17.156 4.09 4.727 9.83 8.26 17.216 10.604 7.387 2.342 16.4 3.515 27.045 3.515 9.531 0 17.971-1.369 25.318-4.111 7.346-2.74 13.362-6.988 18.05-12.748 4.686-5.758 7.744-11.953 9.174-18.585 1.429-6.633 2.142-17.056 2.142-31.275v-38.721c0-11.2-.773-19.539-2.321-25.02-1.551-5.48-4.431-10.8-8.639-15.964zM56.496 290.665c19.883 0 36 16.119 36 36.002 0 19.881-16.117 36-36 36-19.882 0-36-16.119-36-36 0-19.883 16.118-36.002 36-36.002z"/><path fill="#FFB000" d="M759.815 119.559l-15.013 46.185-.06-80.972h-48.133v30.191c17.716 34.276 48.398 60.757 85.557 72.968l-1.441-5.403 19.538-62.965h-40.449v-.004m150.477 23.828c-.836-3.732-3.218-7.782-7.145-12.151-3.932-4.368-9.576-7.883-16.919-10.544-7.346-2.661-16.264-3.993-26.748-3.993-10.565 0-19.838 1.63-27.817 4.886-7.985 3.258-13.644 7.884-16.98 13.88-3.336 5.998-5.003 15.31-5.003 27.939 0 8.896 1.551 16.581 4.647 23.055 1.323 2.761 3.66 5.661 6.993 8.69 2.391.115 4.796.178 7.215.178 18.699 0 36.587-3.468 53.071-9.782-.151-.073-.292-.145-.44-.218-10.486-5.164-17.419-9.094-20.792-11.796-3.375-2.699-5.404-5.182-6.079-7.446-.673-2.264-1.012-5.818-1.012-10.664 0-3.573.673-6.253 2.025-8.04 1.352-1.789 3.375-2.682 6.079-2.682 3.336 0 5.419.974 6.252 2.92.833 1.946 1.253 6.573 1.253 13.88v8.578h42.471l.183-.12v-9.053c-.003-7.941-.42-13.78-1.254-17.517zM828.551-.17c25.993 0 47.067 21.074 47.067 47.069 0 25.993-21.074 47.066-47.067 47.066-25.995 0-47.067-21.073-47.067-47.066 0-25.995 21.072-47.068 47.067-47.068z"/></svg>